<svg xmlns="http://www.w3.org/2000/svg" version="1.1" viewBox="-5.0 -10.0 110.0 135.0">
 <path d="m87.5 41.379v-12.379c0-1.6562-1.3438-3-3-3v-12c-0.007812-6.625-5.375-11.992-12-12h-18c-4.9727 0-9 4.0273-9 9 0 2.8008 1.3047 5.4414 3.5273 7.1445 1.5391 1.1406 2.457 2.9375 2.4766 4.8555v3c-1.6562 0-3 1.3438-3 3v12.379c-5.293 1.375-8.9922 6.1484-9 11.621v33c0.007813 6.625 5.375 11.992 12 12h33c6.625-0.007812 11.992-5.375 12-12l-0.003906-33c-0.007812-5.4688-3.707-10.246-9-11.621zm-6-9.3789v9h-27v-9zm-28.824-18.617c-1.3164-1.0078-1.5664-2.8906-0.5625-4.2031 0.57031-0.74609 1.4531-1.1797 2.3867-1.1797h18c3.3125 0.003906 5.9961 2.6875 6 6v12h-21v-3c-0.011719-3.7852-1.7969-7.3438-4.8242-9.6172zm31.824 78.617h-33c-3.3125-0.003906-5.9961-2.6875-6-6v-1.6133c1.8203 1.0586 3.8945 1.6133 6 1.6133h33c2.1055 0 4.1797-0.55469 6-1.6133v1.6133c-0.003906 3.3125-2.6875 5.9961-6 6zm0-12h-33c-3.3125-0.003906-5.9961-2.6875-6-6v-21c0.003906-3.3125 2.6875-5.9961 6-6h33c3.3125 0.003906 5.9961 2.6875 6 6v21c-0.003906 3.3125-2.6875 5.9961-6 6zm-42.016-46.621c0.24609-4.4102-2.7461-8.3438-7.0625-9.2891-0.52734-0.11328-0.91797-0.55469-0.97656-1.0898-0.52344-4.9414-4.9531-8.5273-9.8945-8.0039-1.8828 0.19922-3.6523 0.98438-5.0586 2.2461-10.164 9.1094-15.98 22.109-15.992 35.758v18c0 8.2852 6.7148 15 15 15s15-6.7148 15-15v-18c0.003906-5.1172 2.1875-9.9961 6-13.41 1.7852-1.5898 2.8594-3.8242 2.9844-6.2109zm-23.984 46.621c-4.9688-0.007812-8.9922-4.0312-9-9v-0.007812c5.3281 4.0117 12.672 4.0117 18 0v0.007812c-0.007812 4.9688-4.0312 8.9922-9 9zm17.992-46.953c-0.039063 0.79688-0.39844 1.5391-0.99609 2.0703-5.082 4.5547-7.9883 11.059-7.9961 17.883v6c0 4.9727-4.0273 9-9 9s-9-4.0273-9-9v-6c0.011719-11.945 5.0977-23.32 13.992-31.293 1.2344-1.1055 3.1328-1.0039 4.2344 0.23047 0.42188 0.46875 0.68359 1.0586 0.75 1.6836 0.32422 3.1094 2.6055 5.6602 5.6602 6.3281 1.4414 0.31641 2.4414 1.6289 2.3555 3.0977z"/>
<text x="0.0" y="117.5" font-size="5.0" font-weight="bold" font-family="Arbeit Regular, Helvetica, Arial-Unicode, Arial, Sans-serif" fill="#000000">Created by Side Project</text><text x="0.0" y="122.5" font-size="5.0" font-weight="bold" font-family="Arbeit Regular, Helvetica, Arial-Unicode, Arial, Sans-serif" fill="#000000">from Noun Project</text></svg>