<svg xmlns="http://www.w3.org/2000/svg" version="1.1" viewBox="-5.0 -10.0 110.0 135.0">
 <g fill-rule="evenodd">
  <path d="m22.891 14.32v25.262h-2.082c-1.1484 0-2.082 0.93359-2.082 2.082v8.332h-2.082c-1.1484 0-2.082 0.93359-2.082 2.082v33.332c0 1.6602 0.66016 3.2461 1.832 4.4219 1.1719 1.1719 2.7617 1.8281 4.418 1.8281h20.832c1.6602 0 3.2461-0.66016 4.418-1.8281 1.1719-1.1719 1.832-2.7617 1.832-4.4219v-33.332c0-1.1484-0.93359-2.082-2.082-2.082h-2.082v-8.332c0-1.1484-0.93359-2.082-2.082-2.082h-2.082v-18.75c0-0.25-0.14844-1.4922-0.21094-1.9023-0.32422-2.0781-1.6367-4.6172-3.8242-6.8008-2.1836-2.1836-4.7227-3.4961-6.8008-3.8203-1.9102-0.29688-3.5195 0.1875-4.5977 1.2617-1.0742 1.0742-1.2422 4.6992-1.2344 4.75zm20.832 48.18v22.918c0 0.55469-0.21875 1.082-0.60938 1.4727s-0.92188 0.60938-1.4727 0.60938h-20.832c-0.55078 0-1.082-0.21875-1.4727-0.60938-0.39063-0.39062-0.60938-0.91797-0.60938-1.4727v-22.918h25zm-25-4.168v-4.168h25v4.168zm4.168-8.332h16.668v-6.25h-16.668zm4.168-10.418h8.332v-14.762c-0.58984 0.082032-1.2266 0.074219-1.9023-0.03125-1.9609-0.30469-4.332-1.4922-6.4297-3.4609zm0.066406-25.449c-0.023438-0.082031-0.054688-1.6133-0.050781-1.6172 0.125-0.125 0.32031-0.125 0.52734-0.12891 0.33594-0.003907 0.70313 0.0625 1.0898 0.17969 1.2539 0.37891 2.6406 1.2617 3.8867 2.5078 1.2461 1.2461 2.1289 2.6328 2.5078 3.8867 0.11719 0.38672 0.18359 0.75391 0.17969 1.0898-0.003906 0.20703-0.003906 0.40234-0.12891 0.52734-0.12891 0.12891-0.32422 0.125-0.52734 0.12891-0.33594 0.003907-0.70312-0.0625-1.0898-0.17969-1.2539-0.38281-2.6406-1.2617-3.8867-2.5078-1.2461-1.2461-2.1289-2.6328-2.5078-3.8867z"/>
  <path d="m85.418 89.582v-33.332c0-1.6602-0.66016-3.2461-1.832-4.418-1.1719-1.1719-2.7617-1.832-4.418-1.832h-20.832c-1.6602 0-3.2461 0.66016-4.418 1.832s-1.832 2.7617-1.832 4.418v33.332c0 1.1484 0.93359 2.082 2.082 2.082h29.168c1.1484 0 2.082-0.93359 2.082-2.082zm-4.168-6.2383v4.1562h-25v-4.1562zm0-4.168h-25v-22.926c0-0.55078 0.21875-1.082 0.60938-1.4727s0.92188-0.60938 1.4727-0.60938h20.832c0.55078 0 1.082 0.21875 1.4727 0.60938s0.60938 0.92188 0.60938 1.4727v22.926z"/>
  <path d="m22.926 72.91v6.25c0 2.3008 1.8672 4.168 4.168 4.168h6.25c1.1484 0 2.082-0.93359 2.082-2.082 0-1.1484-0.93359-2.082-2.082-2.082h-6.25v-6.25c0-1.1484-0.93359-2.082-2.082-2.082-1.1484 0-2.082 0.93359-2.082 2.082z"/>
 </g>
<text x="0.0" y="117.5" font-size="5.0" font-weight="bold" font-family="Arbeit Regular, Helvetica, Arial-Unicode, Arial, Sans-serif" fill="#000000">Created by erix subyarko</text><text x="0.0" y="122.5" font-size="5.0" font-weight="bold" font-family="Arbeit Regular, Helvetica, Arial-Unicode, Arial, Sans-serif" fill="#000000">from Noun Project</text></svg>